<?xml version="1.0" encoding="utf-8"?>
<!-- Generator: Adobe Illustrator 24.1.0, SVG Export Plug-In . SVG Version: 6.00 Build 0)  -->
<svg version="1.1" id="aa03ddf9-f8f2-4819-a4ce-be9b0a220741"
	 xmlns="http://www.w3.org/2000/svg" xmlns:xlink="http://www.w3.org/1999/xlink" x="0px" y="0px" viewBox="0 0 1119.6 699"
	 enable-background="new 0 0 1119.6 699" xml:space="preserve">
<g>
	<path fill="#F2F2F2" d="M292.6,0c117.6,0,213,95.4,213,213c0,117.6-95.4,213-213,213c-117.6,0-213-95.4-213-213
		C79.6,95.4,175,0,292.6,0"/>
	<path fill="#2F2E41" d="M0,51.1c0,77.5,48.6,140.2,108.7,140.2"/>
	<path fill="#297CBB" d="M108.7,191.4C108.7,113,163,49.6,230,49.6"/>
	<path fill="#297CBB" d="M39.4,58.2c0,73.6,31,133.2,69.3,133.2"/>
	<path fill="#2F2E41" d="M108.7,191.4c0-100.1,62.7-181.2,140.2-181.2"/>
	<path fill="#A8A8A8" d="M85.8,192.3c0,0,15.4-0.5,20.1-3.8c4.6-3.3,23.7-7.3,24.9-2c1.2,5.3,23.2,26.4,5.8,26.5
		c-17.4,0.1-40.4-2.7-45.1-5.5C86.8,204.8,85.8,192.3,85.8,192.3"/>
	<path fill="#C2C2C2" d="M86.3,192.3c-0.3,0-0.5,0-0.5,0l0,0C85.8,192.3,86,192.3,86.3,192.3C86.3,192.3,86.3,192.3,86.3,192.3"/>
	<path fill="#868686" d="M86.3,192.3c-0.3,0-0.5,0-0.5,0s0.4,4.8,1.8,9.1v-2.9C86.9,196.2,86.6,193.9,86.3,192.3"/>
	<path fill="#3F3D56" d="M198.6,399.1c103.3,0,187,11.4,187,25.4c0,14-83.7,25.4-187,25.4c-103.3,0-187-11.4-187-25.4
		C11.6,410.5,95.3,399.1,198.6,399.1"/>
	<path fill="#39374D" d="M87.6,409.4c-28.4,3.9-46,9.2-46,15.1c0,11.8,70.3,21.4,157,21.4c86.7,0,157-9.6,157-21.4
		c0-3.6-6.5-7-18-9.9V425h-250V409.4"/>
	<path fill="#3F3D56" d="M836.6,622c156.3,0,283,17.2,283,38.5c0,21.3-126.7,38.5-283,38.5c-156.3,0-283-17.2-283-38.5
		C553.6,639.2,680.3,622,836.6,622"/>
	<ellipse fill="#3F3D56" cx="310.6" cy="645.5" rx="170" ry="23.1"/>
	<path fill="none" stroke="#2F2E41" stroke-width="2" stroke-miterlimit="10" d="M462.6,626c90,23,263-30,282-90"/>
	<path fill="#2F2E41" d="M309.9,260c0,0,0.1,0,0.2-0.1c2.1-0.6,20.2-5.2,42.6-5.2c19.2,0,41.5,3.4,59.6,15.6c9,6.1,17,14.4,23,25.6
		c6,11.2,10.1,25.3,11.4,43.1c0.3,3.9,0.4,7.8,0.4,11.5c0,37.4-12.9,65.5-25.9,87.3c-6.5,10.9-13,20.2-17.9,28.2
		c-2.5,4-4.5,7.8-6,11.3c-1.5,3.5-2.3,6.8-2.3,9.9c0,2.6,0.6,5.1,1.9,7.4c2,3.5,5.6,6.6,11,9.4c5.4,2.8,12.8,5.4,22.4,7.9l0.5-1.9
		c-12.7-3.2-21.3-6.7-26.6-10.5c-2.6-1.9-4.5-3.8-5.6-5.8c-1.2-2-1.7-4.1-1.7-6.4c0-2.8,0.8-5.8,2.2-9.2c2.4-5.9,6.8-12.7,11.9-20.6
		c15.4-23.7,38-57.2,37.9-107c0-3.8-0.1-7.7-0.4-11.6c-1.2-18-5.4-32.4-11.6-43.9c-9.3-17.2-23.1-27.9-38.2-34.1
		c-15.1-6.3-31.5-8.2-46.1-8.2c-24.1,0-43.3,5.3-43.3,5.3L309.9,260"/>
	<path fill="none" stroke="#2F2E41" stroke-width="2" stroke-miterlimit="10" d="M184,537.3c0,0,39.1-10.8,41.5,24
		c2.4,34.9-32.2,44.8-5.1,51.7"/>
	<path fill="#2F2E41" d="M778.7,563.2l-7.9,50.3c0,0-38.8,20.6-11.5,21.2c27.3,0.6,155.7,0,155.7,0s24.8,0-14.5-21.8l-7.9-52.7
		L778.7,563.2"/>
	<path fill="#E5E5E5" d="M904.5,615.2c5.7,3.3,9.8,6.1,12.6,8.4h0C914.3,621.3,910.2,618.5,904.5,615.2 M904.2,615
		c0.1,0.1,0.2,0.1,0.3,0.2C904.4,615.2,904.3,615.1,904.2,615 M904.1,615C904.2,615,904.2,615,904.1,615
		C904.2,615,904.2,615,904.1,615 M904.1,615C904.1,615,904.1,615,904.1,615C904.1,615,904.1,615,904.1,615 M904,614.9
		C904,614.9,904,614.9,904,614.9C904,614.9,904,614.9,904,614.9 M903.9,614.9C903.9,614.9,904,614.9,903.9,614.9
		C904,614.9,903.9,614.9,903.9,614.9 M903.9,614.8C903.9,614.8,903.9,614.8,903.9,614.8C903.9,614.8,903.9,614.8,903.9,614.8
		 M903.7,614.7c0,0,0.1,0,0.1,0.1C903.8,614.8,903.7,614.8,903.7,614.7 M903.6,614.7C903.6,614.7,903.7,614.7,903.6,614.7
		C903.7,614.7,903.6,614.7,903.6,614.7 M903.5,614.6C903.6,614.7,903.6,614.7,903.5,614.6C903.6,614.7,903.6,614.7,903.5,614.6
		 M903.5,614.6C903.5,614.6,903.5,614.6,903.5,614.6C903.5,614.6,903.5,614.6,903.5,614.6 M903.4,614.6
		C903.4,614.6,903.4,614.6,903.4,614.6C903.4,614.6,903.4,614.6,903.4,614.6 M903.3,614.5C903.3,614.5,903.3,614.5,903.3,614.5
		C903.3,614.5,903.3,614.5,903.3,614.5 M903.2,614.5C903.2,614.5,903.3,614.5,903.2,614.5C903.3,614.5,903.2,614.5,903.2,614.5
		 M903.2,614.4C903.2,614.4,903.2,614.4,903.2,614.4C903.2,614.4,903.2,614.4,903.2,614.4 M903.1,614.4
		C903.1,614.4,903.1,614.4,903.1,614.4C903.1,614.4,903.1,614.4,903.1,614.4 M903,614.3C903,614.3,903,614.4,903,614.3
		C903,614.4,903,614.3,903,614.3 M902.9,614.3C902.9,614.3,902.9,614.3,902.9,614.3C902.9,614.3,902.9,614.3,902.9,614.3
		 M902.9,614.2C902.9,614.3,902.9,614.3,902.9,614.2C902.9,614.3,902.9,614.3,902.9,614.2 M902.8,614.2
		C902.8,614.2,902.8,614.2,902.8,614.2C902.8,614.2,902.8,614.2,902.8,614.2 M902.7,614.2C902.7,614.2,902.7,614.2,902.7,614.2
		C902.7,614.2,902.7,614.2,902.7,614.2 M902.6,614.1L902.6,614.1L902.6,614.1 M902.5,614.1C902.6,614.1,902.6,614.1,902.5,614.1
		C902.6,614.1,902.6,614.1,902.5,614.1 M902.5,614C902.5,614,902.5,614,902.5,614C902.5,614,902.5,614,902.5,614 M902.4,614
		C902.4,614,902.4,614,902.4,614C902.4,614,902.4,614,902.4,614 M902.1,613.8C902.2,613.8,902.2,613.9,902.1,613.8
		C902.2,613.9,902.1,613.8,902.1,613.8 M902,613.8C902,613.8,902,613.8,902,613.8C902,613.8,902,613.8,902,613.8 M901.9,613.7
		C901.9,613.7,901.9,613.7,901.9,613.7C901.9,613.7,901.9,613.7,901.9,613.7 M901.8,613.7C901.8,613.7,901.8,613.7,901.8,613.7
		C901.8,613.7,901.8,613.7,901.8,613.7 M901.7,613.6C901.7,613.6,901.8,613.6,901.7,613.6C901.8,613.6,901.7,613.6,901.7,613.6
		 M901.7,613.6C901.7,613.6,901.7,613.6,901.7,613.6C901.7,613.6,901.7,613.6,901.7,613.6 M770.8,613.5
		C770.8,613.5,770.8,613.5,770.8,613.5C770.8,613.5,770.8,613.5,770.8,613.5 M770.8,613.5C770.8,613.5,770.8,613.5,770.8,613.5
		C770.8,613.5,770.8,613.5,770.8,613.5 M770.8,613.5C770.8,613.5,770.8,613.5,770.8,613.5C770.8,613.5,770.8,613.5,770.8,613.5
		 M770.8,613.5L770.8,613.5C770.8,613.5,770.8,613.5,770.8,613.5 M770.8,613.5C770.8,613.5,770.8,613.5,770.8,613.5
		C770.8,613.5,770.8,613.5,770.8,613.5 M901.6,613.5C901.6,613.5,901.6,613.5,901.6,613.5C901.6,613.5,901.6,613.5,901.6,613.5
		 M901.5,613.5C901.5,613.5,901.5,613.5,901.5,613.5C901.5,613.5,901.5,613.5,901.5,613.5 M901.3,613.4
		C901.3,613.4,901.3,613.4,901.3,613.4C901.3,613.4,901.3,613.4,901.3,613.4 M901.3,613.3C901.3,613.3,901.3,613.3,901.3,613.3
		C901.3,613.3,901.3,613.3,901.3,613.3 M901.2,613.3C901.2,613.3,901.2,613.3,901.2,613.3C901.2,613.3,901.2,613.3,901.2,613.3
		 M901.1,613.3L901.1,613.3C901.1,613.3,901.1,613.3,901.1,613.3 M901,613.2C901,613.2,901,613.2,901,613.2
		C901,613.2,901,613.2,901,613.2 M900.9,613.2C900.9,613.2,900.9,613.2,900.9,613.2C900.9,613.2,900.9,613.2,900.9,613.2
		 M900.8,613.1C900.8,613.1,900.8,613.1,900.8,613.1C900.8,613.1,900.8,613.1,900.8,613.1 M900.7,613.1
		C900.8,613.1,900.8,613.1,900.7,613.1C900.8,613.1,900.8,613.1,900.7,613.1 M900.7,613C900.7,613,900.7,613,900.7,613
		C900.7,613,900.7,613,900.7,613 M900.6,613C900.6,613,900.6,613,900.6,613C900.6,613,900.6,613,900.6,613 M892.6,560.2l-113.9,3
		l-7.9,50.3l0,0l0,0l7.9-50.3L892.6,560.2l7.9,52.7l0,0l0,0L892.6,560.2"/>
	<path fill="#39374D" d="M922.6,632C922.6,632,922.6,632,922.6,632C922.6,632,922.6,632,922.6,632 M917.1,623.6
		c5.1,4.2,6.2,6.8,5.4,8.4C923.3,630.3,922.3,627.7,917.1,623.6L917.1,623.6"/>
	<path fill="#2A293A" d="M892.6,560.2l-113.9,3l-7.9,50.3l0,0c0,0,0,0,0,0c0,0,0,0,0,0c0,0,0,0,0,0c0,0,0,0,0,0c0,0,0,0,0,0
		c0,0,0,0,0,0c0,0,0,0,0,0c0,0,0,0,0,0c0,0,0,0,0,0c0,0,0,0,0,0c-1,0.6-32.3,17.4-17,20.6c6.2-5.5,17-11.3,17-11.3l7.9-50.3
		l113.9,0.1l7.9,49.6c9.2,5.1,14.9,9,18.2,12c1.6-0.4,3.3-1.1,3.9-2.3c0,0,0,0,0,0c0,0,0,0,0,0c0.7-1.6-0.3-4.2-5.4-8.4
		c-2.8-2.3-6.9-5-12.6-8.4l0,0c-0.1-0.1-0.2-0.1-0.3-0.2c0,0,0,0,0,0c0,0,0,0-0.1,0c0,0,0,0,0,0c0,0,0,0,0,0c0,0,0,0,0,0
		c0,0,0,0,0,0c0,0,0,0-0.1,0c0,0,0,0,0,0c0,0,0,0,0,0c0,0,0,0,0,0c0,0,0,0,0,0c0,0-0.1,0-0.1-0.1c0,0,0,0,0,0c0,0,0,0-0.1,0
		c0,0,0,0,0,0c0,0,0,0,0,0c0,0,0,0,0,0c0,0,0,0,0,0c0,0,0,0-0.1,0c0,0,0,0,0,0c0,0,0,0,0,0c0,0,0,0,0,0c0,0,0,0-0.1,0c0,0,0,0,0,0
		c0,0,0,0,0,0c0,0,0,0,0,0c0,0,0,0,0,0c0,0,0,0-0.1,0c0,0,0,0,0,0c0,0,0,0,0,0c0,0,0,0-0.1,0c0,0,0,0,0,0c0,0,0,0,0,0c0,0,0,0,0,0
		c0,0,0,0,0,0c0,0,0,0,0,0c0,0,0,0-0.1,0c0,0,0,0,0,0c0,0,0,0-0.1,0l0,0c0,0-0.1,0-0.1,0c0,0,0,0,0,0c0,0,0,0-0.1,0c0,0,0,0,0,0
		c0,0,0,0-0.1,0c0,0,0,0,0,0c-0.1,0-0.1-0.1-0.2-0.1c0,0,0,0,0,0c0,0-0.1-0.1-0.1-0.1c0,0,0,0,0,0c0,0,0,0-0.1,0c0,0,0,0,0,0
		c0,0,0,0,0,0c0,0,0,0,0,0c0,0,0,0,0,0c0,0,0,0-0.1,0c0,0,0,0,0,0c0,0,0,0,0,0c0,0,0,0-0.1,0c0,0,0,0,0,0c0,0,0,0-0.1,0c0,0,0,0,0,0
		c0,0-0.1-0.1-0.1-0.1c0,0,0,0,0,0c0,0,0,0-0.1,0c0,0,0,0,0,0c0,0,0,0-0.1,0c0,0,0,0,0,0c0,0,0,0-0.1,0l0,0c0,0-0.1,0-0.1,0
		c0,0,0,0,0,0c0,0,0,0-0.1,0c0,0,0,0,0,0c0,0,0,0-0.1,0c0,0,0,0,0,0c0,0,0,0,0,0c0,0,0,0,0,0c0,0,0,0-0.1,0c0,0,0,0,0,0
		c0,0,0,0-0.1,0c0,0,0,0,0,0c0,0,0,0-0.1,0l0,0L892.6,560.2"/>
	<path fill="#2F2E41" d="M596.5,212.7h477.2c10,0,18,8.1,18,18v321.4c0,10-8.1,18-18,18H596.5c-10,0-18-8.1-18-18V230.7
		C578.4,220.8,586.5,212.7,596.5,212.7z"/>
	<rect x="595.7" y="231.8" fill="#3F3D56" width="478.7" height="267.8"/>
	<circle fill="#F2F2F2" cx="835.1" cy="223.3" r="3"/>
	<path fill="#2F2E41" d="M1091.7,520.8v31.3c0,10-8.1,18-18,18h0H596.5c-10,0-18-8.1-18-18v0v-31.3H1091.7z"/>
	<polyline fill="#2F2E41" points="969,667.5 969,673.5 643,673.5 643,668.7 643.4,667.5 651.5,645.7 962.3,645.7 969,667.5 	"/>
	<path fill="#2F2E41" d="M1094.4,661.5c-0.6,2.5-2.8,5.2-7.9,7.8c-18.2,9.1-55.1-2.4-55.1-2.4s-28.5-4.8-28.5-17.6
		c0.8-0.5,1.6-1,2.5-1.5c7.6-4,33-14,77.9,0.4c3.3,1,6.3,3,8.5,5.6C1093.7,656,1095.1,658.7,1094.4,661.5"/>
	<path fill="#39374D" d="M1039.5,640.7c-18.2,0-29.5,4.7-34.1,7.1l0,0C1010.1,645.3,1021.3,640.7,1039.5,640.7L1039.5,640.7"/>
	<path fill="#2A293A" d="M1039.5,640.7c-18.2,0-29.5,4.7-34.1,7.1c0.2,0,0.5,0,0.7,0c6.9,0,16,1.9,25.9,8.8
		c11.2,7.8,22.2,11.1,33.5,11.1c9.3,0,18.9-2.2,28.9-6.1c0.1-0.5,0.2-1,0.2-1.5c0-2.3-1.2-4.5-2.7-6.2c-2.3-2.6-5.2-4.6-8.5-5.6l0,0
		C1065.8,642.6,1051.2,640.7,1039.5,640.7"/>
	<path fill="#F2F2F2" d="M1066.5,651.7c4.4,0,7.9,1.1,7.9,2.4s-3.5,2.4-7.9,2.4s-7.9-1.1-7.9-2.4S1062.2,651.7,1066.5,651.7z"/>
	<circle fill="#F2F2F2" cx="835.1" cy="545.7" r="11.5"/>
	<polyline fill="#2A293A" points="969,667.5 643.4,667.5 643,668.7 643,673.5 969,673.5 969,667.5 	"/>
	<polyline fill="#2F2E41" points="108.6,159 316.6,159 316.6,401 108.6,401 108.6,159 	"/>
	<polyline fill="#3F3D56" points="87.6,135 337.6,135 337.6,221 87.6,221 87.6,135 	"/>
	<polyline fill="#3F3D56" points="87.6,237 337.6,237 337.6,323 87.6,323 87.6,237 	"/>
	<polyline fill="#3F3D56" points="87.6,339 337.6,339 337.6,425 87.6,425 87.6,339 	"/>
	<polyline fill="#36567E" points="287.6,150 271.6,150 271.6,166 287.6,166 287.6,150 	"/>
	<polyline fill="#2D6FA7" points="310.6,150 294.6,150 294.6,166 310.6,166 310.6,150 	"/>
	<rect x="317.6" y="150" fill="#297CBB" width="16" height="16"/>
	<polyline fill="#36567E" points="287.6,251 271.6,251 271.6,267 287.6,267 287.6,251 	"/>
	<polyline fill="#2D6FA7" points="310.6,251 294.6,251 294.6,267 310.6,267 310.6,251 	"/>
	<rect x="317.6" y="251" fill="#297CBB" width="16" height="16"/>
	<polyline fill="#36567E" points="287.6,352 271.6,352 271.6,368 287.6,368 287.6,352 	"/>
	<polyline fill="#2D6FA7" points="310.6,352 294.6,352 294.6,368 310.6,368 310.6,352 	"/>
	<rect x="317.6" y="352" fill="#297CBB" width="16" height="16"/>
	<circle fill="#2F2E41" cx="316.6" cy="538" r="79"/>
	<rect x="280.6" y="600" fill="#2F2E41" width="24" height="43"/>
	<rect x="328.6" y="600" fill="#2F2E41" width="24" height="43"/>
	<ellipse fill="#2F2E41" cx="300.6" cy="643.5" rx="20" ry="7.5"/>
	<ellipse fill="#2F2E41" cx="348.6" cy="642.5" rx="20" ry="7.5"/>
	<circle fill="#FFFFFF" cx="318.6" cy="518" r="27"/>
	<circle fill="#3F3D56" cx="318.6" cy="518" r="9"/>
	<path fill="#297CBB" d="M240,464.5c-6.4-28.6,14-57.4,45.5-64.5s62.3,10.4,68.6,39s-14.5,39.1-46.1,46.1S246.4,493.1,240,464.5z"/>
	<path fill="#2F2E41" d="M380.9,499.4c20.1-8.6,38.5-10.4,41.2-4.1c2.7,6.3-11.4,18.4-31.4,26.9c-20.1,8.6-38.5,10.4-41.2,4.1
		C346.8,520.1,360.9,508,380.9,499.4z"/>
	<path fill="#2F2E41" d="M232.9,552.4c20.1-8.6,38.5-10.4,41.2-4.1c2.7,6.3-11.4,18.4-31.4,26.9c-20.1,8.6-38.5,10.4-41.2,4.1
		C198.8,573.1,212.9,561,232.9,552.4z"/>
	<path fill="#FFFFFF" d="M362.6,561c0,7.7-19.9,23-42,23c-22.1,0-43-14.3-43-22s20.9-6,43-6C342.7,556,362.6,553.3,362.6,561z"/>
	<path fill="#FFFFFF" d="M969.4,408.6c-12.7,0-19.3-8.3-20-24.8c-0.1-3.9-0.2-10.1-0.2-18.6c0-8.5,0.1-14.6,0.2-18.2
		c0.3-7.6,2-13.6,5.3-18c3.3-4.4,8.2-6.7,14.7-6.8c6.7,0.1,11.6,2.4,14.8,6.8c3.2,4.4,4.9,10.4,5.2,18c0.3,3.6,0.4,9.7,0.4,18.2
		c0,8.5-0.1,14.7-0.4,18.6c-0.3,7.9-2,14-5.3,18.3C980.8,406.4,975.9,408.6,969.4,408.6z M969.4,437.6c18.4-0.1,32.3-5,41.8-14.7
		c9.5-9.7,14.7-22.4,15.6-38.1c0.3-7.2,0.4-13.6,0.4-19.2c0-5.7-0.1-12.3-0.4-19.8c-0.8-15.5-6.1-28-15.8-37.6
		c-9.7-9.6-23.6-14.5-41.6-14.6c-12.1,0-22.4,2.3-30.8,6.9s-14.8,10.8-19.1,18.6c-4.3,7.8-6.8,16.7-7.3,26.7
		c-0.3,7.5-0.4,14.1-0.4,19.8c0,5.6,0.1,12,0.4,19.2c0.8,15.7,5.9,28.4,15.4,38.1C937,432.6,951,437.5,969.4,437.6z M833.4,408.6
		c-12.7,0-19.3-8.3-20-24.8c-0.1-3.9-0.2-10.1-0.2-18.6c0-8.5,0.1-14.6,0.2-18.2c0.3-7.6,2-13.6,5.3-18c3.3-4.4,8.2-6.7,14.7-6.8
		c6.7,0.1,11.6,2.4,14.8,6.8c3.2,4.4,4.9,10.4,5.2,18c0.3,3.6,0.4,9.7,0.4,18.2c0,8.5-0.1,14.7-0.4,18.6c-0.3,7.9-2,14-5.3,18.3
		C844.8,406.4,839.9,408.6,833.4,408.6z M833.4,437.6c18.4-0.1,32.3-5,41.8-14.7c9.5-9.7,14.7-22.4,15.6-38.1
		c0.3-7.2,0.4-13.6,0.4-19.2c0-5.7-0.1-12.3-0.4-19.8c-0.8-15.5-6.1-28-15.8-37.6c-9.7-9.6-23.6-14.5-41.6-14.6
		c-12.1,0-22.4,2.3-30.8,6.9s-14.8,10.8-19.1,18.6c-4.3,7.8-6.8,16.7-7.3,26.7c-0.3,7.5-0.4,14.1-0.4,19.8c0,5.6,0.1,12,0.4,19.2
		c0.8,15.7,5.9,28.4,15.4,38.1C801,432.6,815,437.5,833.4,437.6z M700.4,437.8c11.9,0,22.2-2.1,30.9-6.2c8.7-4.1,15.4-9.9,20.1-17.3
		c4.7-7.4,7-15.8,7-25.3c0-8.9-2.2-16.9-6.7-23.8c-4.5-6.9-10.4-12.3-17.9-16.1c-7.5-3.8-15.4-5.7-23.8-5.7
		c-6.4,0-11.6,0.6-15.6,1.7c-4,1.1-7.7,2.8-11,5.1l2.6-25.8h58c1.5,0,2.7-0.5,3.7-1.4c1-0.9,1.5-2.1,1.5-3.6v-18.8
		c0-1.5-0.5-2.7-1.5-3.6c-1-0.9-2.2-1.4-3.7-1.4h-80.2c-1.7,0-3.2,0.5-4.5,1.6c-1.3,1.1-2,2.5-2.1,4.4l-7.2,69.8
		c0,1.2,0.4,2.2,1.3,3.1c0.9,0.9,1.9,1.3,3.1,1.3h26.2c1.3,0,3.1-0.9,5.4-2.6c2.1-1.6,4.2-2.8,6.3-3.7c2.1-0.9,4.8-1.3,8.3-1.3
		c6.1,0,11.2,1.9,15.1,5.6c3.9,3.7,5.9,8.5,5.9,14.4c0,6.5-2,11.6-6.1,15.3c-4.1,3.7-9,5.5-14.9,5.5c-9.9,0-16.6-4.5-20.2-13.4
		c-1.2-2.5-3.3-3.8-6.4-3.8h-26.8c-1.2,0-2.2,0.4-3,1.2c-0.8,0.8-1.2,1.8-1.2,3c0.3,7.5,2.6,14.4,7.1,20.8
		c4.5,6.4,11,11.5,19.5,15.3C678.1,435.9,688.4,437.8,700.4,437.8z"/>
</g>
</svg>
