<?xml version="1.0" standalone="no"?>
<!DOCTYPE svg PUBLIC "-//W3C//DTD SVG 20010904//EN"
 "http://www.w3.org/TR/2001/REC-SVG-20010904/DTD/svg10.dtd">
<svg version="1.0" xmlns="http://www.w3.org/2000/svg"
 width="393.000000pt" height="393.000000pt" viewBox="0 0 393.000000 393.000000"
 preserveAspectRatio="xMidYMid meet">
<metadata>
Created by potrace 1.11, written by Peter Selinger 2001-2013
</metadata>
<g transform="translate(0.000000,393.000000) scale(0.100000,-0.100000)"
fill="#000000" stroke="none">
<path d="M1729 3684 c-137 -140 -494 -495 -599 -594 -91 -87 -362 -345 -399
-380 -406 -382 -674 -647 -693 -685 -27 -53 -35 -149 -16 -195 18 -42 91 -141
699 -956 255 -342 485 -651 512 -688 l47 -67 48 33 c51 35 252 189 252 193 0
2 -13 31 -30 66 -31 69 -60 167 -60 209 0 103 59 165 236 251 l126 60 -7 182
c-3 100 -8 207 -10 237 -2 30 -6 114 -10 185 -4 72 -8 148 -10 170 -2 22 -7
102 -10 178 -6 115 -10 163 -14 174 -1 1 -61 -30 -133 -68 -188 -98 -720 -361
-723 -357 -61 74 -117 159 -129 195 -18 55 -15 127 7 170 22 41 143 161 303
300 12 10 50 43 85 73 35 30 82 71 104 91 51 46 375 316 474 397 25 19 25 21
27 208 2 179 10 401 19 489 2 22 7 72 10 110 4 39 9 85 11 103 3 17 3 32 1 32
-2 0 -55 -52 -118 -116z"/>
<path d="M2084 3763 c24 -179 37 -401 41 -703 2 -96 3 -178 4 -181 1 -4 45
-42 99 -85 53 -43 99 -80 102 -83 3 -4 59 -51 125 -106 175 -146 502 -433 572
-502 90 -90 108 -125 107 -203 0 -42 -7 -77 -18 -100 -15 -28 -84 -126 -117
-164 -6 -7 -698 331 -811 398 -57 33 -55 40 -64 -149 -3 -77 -7 -156 -9 -175
-1 -19 -6 -98 -10 -175 -4 -77 -8 -156 -10 -175 -2 -19 -6 -124 -10 -232 l-7
-197 127 -61 c141 -69 207 -122 223 -182 20 -73 0 -178 -54 -292 -13 -27 -22
-52 -19 -56 2 -3 39 -33 82 -66 43 -32 80 -61 83 -64 3 -3 33 -24 66 -47 l62
-43 83 113 c206 278 303 408 594 797 642 858 611 811 593 913 -19 104 -13 98
-713 762 -23 22 -116 110 -206 196 -90 86 -182 173 -204 193 -56 52 -489 482
-609 605 -54 56 -101 101 -103 101 -2 0 -2 -17 1 -37z"/>
</g>
</svg>
