<svg xmlns="http://www.w3.org/2000/svg" viewBox="0 0 1119.6 699"><path fill="#F2F2F2" d="M292.6 0c117.6 0 213 95.4 213 213s-95.4 213-213 213-213-95.4-213-213S175 0 292.6 0"/><path fill="#2F2E41" d="M0 51.1c0 77.5 48.6 140.2 108.7 140.2"/><path fill="#297CBB" d="M108.7 191.4C108.7 113 163 49.6 230 49.6M39.4 58.2c0 73.6 31 133.2 69.3 133.2"/><path fill="#2F2E41" d="M108.7 191.4c0-100.1 62.7-181.2 140.2-181.2"/><path fill="#A8A8A8" d="M85.8 192.3s15.4-.5 20.1-3.8c4.6-3.3 23.7-7.3 24.9-2 1.2 5.3 23.2 26.4 5.8 26.5-17.4.1-40.4-2.7-45.1-5.5-4.7-2.7-5.7-15.2-5.7-15.2"/><path fill="#C2C2C2" d="M86.3 192.3h-.5.5"/><path fill="#868686" d="M86.3 192.3h-.5s.4 4.8 1.8 9.1v-2.9c-.7-2.3-1-4.6-1.3-6.2"/><path fill="#3F3D56" d="M198.6 399.1c103.3 0 187 11.4 187 25.4 0 14-83.7 25.4-187 25.4s-187-11.4-187-25.4c0-14 83.7-25.4 187-25.4"/><path fill="#39374D" d="M87.6 409.4c-28.4 3.9-46 9.2-46 15.1 0 11.8 70.3 21.4 157 21.4s157-9.6 157-21.4c0-3.6-6.5-7-18-9.9V425h-250v-15.6"/><path fill="#3F3D56" d="M836.6 622c156.3 0 283 17.2 283 38.5S992.9 699 836.6 699s-283-17.2-283-38.5 126.7-38.5 283-38.5"/><ellipse fill="#3F3D56" cx="310.6" cy="645.5" rx="170" ry="23.1"/><path fill="none" stroke="#2F2E41" stroke-width="2" stroke-miterlimit="10" d="M462.6 626c90 23 263-30 282-90"/><path fill="#2F2E41" d="M309.9 260s.1 0 .2-.1c2.1-.6 20.2-5.2 42.6-5.2 19.2 0 41.5 3.4 59.6 15.6 9 6.1 17 14.4 23 25.6 6 11.2 10.1 25.3 11.4 43.1.3 3.9.4 7.8.4 11.5 0 37.4-12.9 65.5-25.9 87.3-6.5 10.9-13 20.2-17.9 28.2-2.5 4-4.5 7.8-6 11.3-1.5 3.5-2.3 6.8-2.3 9.9 0 2.6.6 5.1 1.9 7.4 2 3.5 5.6 6.6 11 9.4 5.4 2.8 12.8 5.4 22.4 7.9l.5-1.9c-12.7-3.2-21.3-6.7-26.6-10.5-2.6-1.9-4.5-3.8-5.6-5.8-1.2-2-1.7-4.1-1.7-6.4 0-2.8.8-5.8 2.2-9.2 2.4-5.9 6.8-12.7 11.9-20.6 15.4-23.7 38-57.2 37.9-107 0-3.8-.1-7.7-.4-11.6-1.2-18-5.4-32.4-11.6-43.9-9.3-17.2-23.1-27.9-38.2-34.1-15.1-6.3-31.5-8.2-46.1-8.2-24.1 0-43.3 5.3-43.3 5.3l.6 2"/><path fill="none" stroke="#2F2E41" stroke-width="2" stroke-miterlimit="10" d="M184 537.3s39.1-10.8 41.5 24c2.4 34.9-32.2 44.8-5.1 51.7"/><path fill="#2F2E41" d="M778.7 563.2l-7.9 50.3s-38.8 20.6-11.5 21.2c27.3.6 155.7 0 155.7 0s24.8 0-14.5-21.8l-7.9-52.7-113.9 3"/><path fill="#E5E5E5" d="M904.5 615.2c5.7 3.3 9.8 6.1 12.6 8.4-2.8-2.3-6.9-5.1-12.6-8.4m-.3-.2c.1.1.2.1.3.2-.1 0-.2-.1-.3-.2m-.1 0c.1 0 .1 0 0 0 .1 0 .1 0 0 0m-.2-.1s.1 0 0 0c.1 0 0 0 0 0m-.2-.2s.1 0 .1.1c0 0-.1 0-.1-.1m-.1 0s.1 0 0 0c.1 0 0 0 0 0m-.1-.1c.1.1.1.1 0 0 .1.1.1.1 0 0m-.3-.1s.1 0 0 0c.1 0 0 0 0 0m-.2-.2s0 .1 0 0c0 .1 0 0 0 0m-.1-.1c0 .1 0 .1 0 0 0 .1 0 .1 0 0m-.4-.1c.1 0 .1 0 0 0 .1 0 .1 0 0 0m-.4-.3c.1 0 .1.1 0 0 .1.1 0 0 0 0m-.4-.2s.1 0 0 0c.1 0 0 0 0 0m-1-.5c.1 0 .1 0 0 0 .1 0 .1 0 0 0m-8.1-52.9l-113.9 3-7.9 50.3 7.9-50.3 113.9-3 7.9 52.7-7.9-52.7"/><path fill="#39374D" d="M917.1 623.6c5.1 4.2 6.2 6.8 5.4 8.4.8-1.7-.2-4.3-5.4-8.4"/><path fill="#2A293A" d="M892.6 560.2l-113.9 3-7.9 50.3c-1 .6-32.3 17.4-17 20.6 6.2-5.5 17-11.3 17-11.3l7.9-50.3 113.9.1 7.9 49.6c9.2 5.1 14.9 9 18.2 12 1.6-.4 3.3-1.1 3.9-2.3.7-1.6-.3-4.2-5.4-8.4-2.8-2.3-6.9-5-12.6-8.4-.1-.1-.2-.1-.3-.2h-.2s-.1 0-.1-.1h-1c-.1 0-.1-.1-.2-.1l-.1-.1h-.4l-.1-.1h-.9l-8.7-54.3"/><path fill="#2F2E41" d="M596.5 212.7h477.2c10 0 18 8.1 18 18v321.4c0 10-8.1 18-18 18H596.5c-10 0-18-8.1-18-18V230.7c-.1-9.9 8-18 18-18z"/><path fill="#3F3D56" d="M595.7 231.8h478.7v267.8H595.7z"/><circle fill="#F2F2F2" cx="835.1" cy="223.3" r="3"/><path fill="#2F2E41" d="M1091.7 520.8v31.3c0 10-8.1 18-18 18H596.5c-10 0-18-8.1-18-18v-31.3h513.2zM969 667.5v6H643v-4.8l.4-1.2 8.1-21.8h310.8l6.7 21.8m125.4-6c-.6 2.5-2.8 5.2-7.9 7.8-18.2 9.1-55.1-2.4-55.1-2.4s-28.5-4.8-28.5-17.6c.8-.5 1.6-1 2.5-1.5 7.6-4 33-14 77.9.4 3.3 1 6.3 3 8.5 5.6 1.9 2.2 3.3 4.9 2.6 7.7"/><path fill="#39374D" d="M1039.5 640.7c-18.2 0-29.5 4.7-34.1 7.1 4.7-2.5 15.9-7.1 34.1-7.1"/><path fill="#2A293A" d="M1039.5 640.7c-18.2 0-29.5 4.7-34.1 7.1h.7c6.9 0 16 1.9 25.9 8.8 11.2 7.8 22.2 11.1 33.5 11.1 9.3 0 18.9-2.2 28.9-6.1.1-.5.2-1 .2-1.5 0-2.3-1.2-4.5-2.7-6.2-2.3-2.6-5.2-4.6-8.5-5.6-17.6-5.7-32.2-7.6-43.9-7.6"/><path fill="#F2F2F2" d="M1066.5 651.7c4.4 0 7.9 1.1 7.9 2.4s-3.5 2.4-7.9 2.4-7.9-1.1-7.9-2.4 3.6-2.4 7.9-2.4z"/><circle fill="#F2F2F2" cx="835.1" cy="545.7" r="11.5"/><path fill="#2A293A" d="M969 667.5H643.4l-.4 1.2v4.8h326v-6"/><path fill="#2F2E41" d="M108.6 159h208v242h-208V159"/><path fill="#3F3D56" d="M87.6 135h250v86h-250v-86m0 102h250v86h-250v-86m0 102h250v86h-250v-86"/><path fill="#36567E" d="M287.6 150h-16v16h16v-16"/><path fill="#2D6FA7" d="M310.6 150h-16v16h16v-16"/><path fill="#297CBB" d="M317.6 150h16v16h-16z"/><path fill="#36567E" d="M287.6 251h-16v16h16v-16"/><path fill="#2D6FA7" d="M310.6 251h-16v16h16v-16"/><path fill="#297CBB" d="M317.6 251h16v16h-16z"/><path fill="#36567E" d="M287.6 352h-16v16h16v-16"/><path fill="#2D6FA7" d="M310.6 352h-16v16h16v-16"/><path fill="#297CBB" d="M317.6 352h16v16h-16z"/><circle fill="#2F2E41" cx="316.6" cy="538" r="79"/><path fill="#2F2E41" d="M280.6 600h24v43h-24zm48 0h24v43h-24z"/><ellipse fill="#2F2E41" cx="300.6" cy="643.5" rx="20" ry="7.5"/><ellipse fill="#2F2E41" cx="348.6" cy="642.5" rx="20" ry="7.5"/><circle fill="#FFF" cx="318.6" cy="518" r="27"/><circle fill="#3F3D56" cx="318.6" cy="518" r="9"/><path fill="#297CBB" d="M240 464.5c-6.4-28.6 14-57.4 45.5-64.5s62.3 10.4 68.6 39-14.5 39.1-46.1 46.1-61.6 8-68-20.6z"/><path fill="#2F2E41" d="M380.9 499.4c20.1-8.6 38.5-10.4 41.2-4.1 2.7 6.3-11.4 18.4-31.4 26.9-20.1 8.6-38.5 10.4-41.2 4.1-2.7-6.2 11.4-18.3 31.4-26.9zm-148 53c20.1-8.6 38.5-10.4 41.2-4.1 2.7 6.3-11.4 18.4-31.4 26.9-20.1 8.6-38.5 10.4-41.2 4.1-2.7-6.2 11.4-18.3 31.4-26.9z"/><path fill="#FFF" d="M362.6 561c0 7.7-19.9 23-42 23s-43-14.3-43-22 20.9-6 43-6 42-2.7 42 5zm606.8-152.4c-12.7 0-19.3-8.3-20-24.8-.1-3.9-.2-10.1-.2-18.6 0-8.5.1-14.6.2-18.2.3-7.6 2-13.6 5.3-18s8.2-6.7 14.7-6.8c6.7.1 11.6 2.4 14.8 6.8 3.2 4.4 4.9 10.4 5.2 18 .3 3.6.4 9.7.4 18.2s-.1 14.7-.4 18.6c-.3 7.9-2 14-5.3 18.3-3.3 4.3-8.2 6.5-14.7 6.5zm0 29c18.4-.1 32.3-5 41.8-14.7s14.7-22.4 15.6-38.1c.3-7.2.4-13.6.4-19.2 0-5.7-.1-12.3-.4-19.8-.8-15.5-6.1-28-15.8-37.6-9.7-9.6-23.6-14.5-41.6-14.6-12.1 0-22.4 2.3-30.8 6.9s-14.8 10.8-19.1 18.6c-4.3 7.8-6.8 16.7-7.3 26.7-.3 7.5-.4 14.1-.4 19.8 0 5.6.1 12 .4 19.2.8 15.7 5.9 28.4 15.4 38.1 9.4 9.7 23.4 14.6 41.8 14.7zm-136-29c-12.7 0-19.3-8.3-20-24.8-.1-3.9-.2-10.1-.2-18.6 0-8.5.1-14.6.2-18.2.3-7.6 2-13.6 5.3-18s8.2-6.7 14.7-6.8c6.7.1 11.6 2.4 14.8 6.8 3.2 4.4 4.9 10.4 5.2 18 .3 3.6.4 9.7.4 18.2s-.1 14.7-.4 18.6c-.3 7.9-2 14-5.3 18.3-3.3 4.3-8.2 6.5-14.7 6.5zm0 29c18.4-.1 32.3-5 41.8-14.7s14.7-22.4 15.6-38.1c.3-7.2.4-13.6.4-19.2 0-5.7-.1-12.3-.4-19.8-.8-15.5-6.1-28-15.8-37.6-9.7-9.6-23.6-14.5-41.6-14.6-12.1 0-22.4 2.3-30.8 6.9s-14.8 10.8-19.1 18.6c-4.3 7.8-6.8 16.7-7.3 26.7-.3 7.5-.4 14.1-.4 19.8 0 5.6.1 12 .4 19.2.8 15.7 5.9 28.4 15.4 38.1 9.4 9.7 23.4 14.6 41.8 14.7zm-133 .2c11.9 0 22.2-2.1 30.9-6.2s15.4-9.9 20.1-17.3c4.7-7.4 7-15.8 7-25.3 0-8.9-2.2-16.9-6.7-23.8-4.5-6.9-10.4-12.3-17.9-16.1-7.5-3.8-15.4-5.7-23.8-5.7-6.4 0-11.6.6-15.6 1.7s-7.7 2.8-11 5.1l2.6-25.8h58c1.5 0 2.7-.5 3.7-1.4 1-.9 1.5-2.1 1.5-3.6v-18.8c0-1.5-.5-2.7-1.5-3.6-1-.9-2.2-1.4-3.7-1.4h-80.2c-1.7 0-3.2.5-4.5 1.6-1.3 1.1-2 2.5-2.1 4.4l-7.2 69.8c0 1.2.4 2.2 1.3 3.1.9.9 1.9 1.3 3.1 1.3h26.2c1.3 0 3.1-.9 5.4-2.6 2.1-1.6 4.2-2.8 6.3-3.7 2.1-.9 4.8-1.3 8.3-1.3 6.1 0 11.2 1.9 15.1 5.6 3.9 3.7 5.9 8.5 5.9 14.4 0 6.5-2 11.6-6.1 15.3-4.1 3.7-9 5.5-14.9 5.5-9.9 0-16.6-4.5-20.2-13.4-1.2-2.5-3.3-3.8-6.4-3.8h-26.8c-1.2 0-2.2.4-3 1.2-.8.8-1.2 1.8-1.2 3 .3 7.5 2.6 14.4 7.1 20.8s11 11.5 19.5 15.3c8.5 3.8 18.8 5.7 30.8 5.7z"/></svg>